<svg xmlns="http://www.w3.org/2000/svg" width="24" height="24" viewBox="0 0 24 24" fill="none" stroke="currentColor" stroke-width="2" stroke-linecap="round" stroke-linejoin="round"><path d="M20.94 11.06A10.8 10.8 0 0 0 12 3a11 11 0 0 0-1.06 21.94c.6.1.82-.26.82-.58v-2.06c-3.3.7-4-1.6-4-1.6-.54-1.38-1.34-1.74-1.34-1.74-1.08-.74.08-.72.08-.72 1.2.08 1.82 1.22 1.82 1.22 1.06 1.82 2.8 1.3 3.48 1 .1-.78.42-1.3.76-1.6-2.66-.3-5.46-1.32-5.46-5.92 0-1.3.46-2.38 1.22-3.22-.12-.3-.54-1.52.12-3.18 0 0 1-.32 3.3 1.22a11.5 11.5 0 0 1 6 0c2.3-1.54 3.3-1.22 3.3-1.22.66 1.66.24 2.88.12 3.18.76.84 1.22 1.92 1.22 3.22 0 4.6-2.8 5.62-5.46 5.92.44.38.82 1.1.82 2.22v3.3c0 .32.22.68.82.58A10.8 10.8 0 0 0 20.94 11.06z"/></svg>